<?xml version="1.0" encoding="UTF-8"?>
<svg version="1.1" xmlns="http://www.w3.org/2000/svg" width="500" height="500">
<path d="M0 0 C1.22111517 -0.00679667 1.22111517 -0.00679667 2.46689934 -0.01373065 C5.19217836 -0.02638166 7.91725774 -0.02475385 10.64256287 -0.02310181 C12.59737912 -0.02908645 14.55219301 -0.03589185 16.50700378 -0.04345703 C21.81467088 -0.06112659 27.1222735 -0.0658127 32.42996716 -0.0670886 C36.8587029 -0.06898743 41.28742361 -0.07634443 45.71615356 -0.08343279 C56.16086936 -0.0997165 66.60555068 -0.1046016 77.05027771 -0.10317993 C87.83343665 -0.10197716 98.61639587 -0.12310615 109.39950424 -0.15466726 C118.65310376 -0.18078887 127.90663785 -0.19154902 137.16027397 -0.19026911 C142.68917134 -0.18975845 148.21789107 -0.19549978 153.74675179 -0.21662521 C158.94327441 -0.23593937 164.13944861 -0.23617897 169.33598328 -0.22159195 C171.24519291 -0.21949454 173.15442398 -0.22425986 175.06359673 -0.23631287 C177.66569589 -0.25167941 180.26658057 -0.24251503 182.86865234 -0.22705078 C183.62788909 -0.23733791 184.38712584 -0.24762503 185.16936976 -0.25822389 C188.60526141 -0.21295388 190.5298338 0.01493345 193.32580471 2.08519554 C195.14720762 4.65778053 195.65047139 6.64358305 195.47679138 9.79525757 C194.0516786 15.60939616 190.4269528 20.65751834 187.30833435 25.70492554 C186.53557681 26.98342025 185.76443773 28.26289449 184.99485779 29.54330444 C183.41475166 32.16668183 181.82518473 34.78394926 180.22776794 37.39682007 C177.98209063 41.07496364 175.77444161 44.77464854 173.5778656 48.48226929 C166.35586466 60.64210749 166.35586466 60.64210749 162.87083435 66.26742554 C162.48218201 66.9380603 162.09352966 67.60869507 161.69309998 68.2996521 C158.3029571 73.71618927 153.82097859 76.98722451 147.87083435 79.26742554 C141.48209038 80.38535236 134.89942664 80.06807466 128.43968201 80.01205444 C126.47427094 80.01691598 124.50886484 80.02436016 122.54347229 80.03417969 C117.22964916 80.0529202 111.91656772 80.03421728 106.60280275 80.00751543 C101.03665897 79.98482177 95.47054995 79.99310594 89.90437317 79.99700928 C80.5651085 79.99877232 71.22613499 79.97666696 61.88694763 79.93978882 C51.08603903 79.89738328 40.28555566 79.89045115 29.48458064 79.90291274 C19.08878309 79.91429287 8.6931354 79.90302206 -1.70264053 79.88056564 C-6.12602634 79.87127169 -10.54932054 79.86952668 -14.97271347 79.87373734 C-20.17511342 79.87749887 -25.37707911 79.86132905 -30.57938004 79.82961655 C-32.49018304 79.82111885 -34.40103006 79.81943784 -36.31184387 79.82499695 C-38.91593051 79.83142489 -41.51871294 79.81332181 -44.12266541 79.78881836 C-44.8823825 79.79637701 -45.6420996 79.80393565 -46.42483842 79.81172335 C-49.85680283 79.75441037 -51.80229539 79.50538018 -54.61004066 77.46140099 C-56.77255991 74.33821219 -56.47243401 71.9747238 -56.12916565 68.26742554 C-55.79916565 67.60742554 -55.46916565 66.94742554 -55.12916565 66.26742554 C-56.12496643 66.13787476 -56.12496643 66.13787476 -57.1408844 66.00570679 C-62.94247495 65.08253398 -66.4731809 64.22069519 -70.12916565 59.26742554 C-71.01686647 56.51446056 -71.24865432 54.03992999 -71.2268219 51.15805054 C-71.22359924 50.40394897 -71.22037659 49.64984741 -71.21705627 48.87289429 C-71.20448792 47.70693726 -71.20448792 47.70693726 -71.19166565 46.51742554 C-71.18715393 45.7246521 -71.18264221 44.93187866 -71.17799377 44.11508179 C-71.1662513 42.16583045 -71.14831711 40.21661816 -71.12916565 38.26742554 C-72.77916565 38.26742554 -74.42916565 38.26742554 -76.12916565 38.26742554 C-76.45916565 37.27742554 -76.78916565 36.28742554 -77.12916565 35.26742554 C-79.43916565 38.89742554 -81.74916565 42.52742554 -84.12916565 46.26742554 C-83.33510315 47.39922241 -82.54104065 48.53101929 -81.72291565 49.69711304 C-80.69142141 51.17871386 -79.66018469 52.66049399 -78.62916565 54.14242554 C-78.10451721 54.88879272 -77.57986877 55.63515991 -77.0393219 56.40414429 C-76.54303284 57.11957397 -76.04674377 57.83500366 -75.53541565 58.57211304 C-75.07457581 59.2319519 -74.61373596 59.89179077 -74.13893127 60.57162476 C-73.12916565 62.26742554 -73.12916565 62.26742554 -73.12916565 64.26742554 C-77.90359868 64.79719139 -82.37795698 65.07513101 -87.12916565 64.26742554 C-90.06657094 61.6693412 -91.63043941 58.86436851 -93.12916565 55.26742554 C-93.53522034 56.24195679 -93.53522034 56.24195679 -93.94947815 57.23617554 C-95.44370695 60.13515837 -96.67396376 62.0958418 -99.12916565 64.26742554 C-103.88037431 65.07513101 -108.35473262 64.79719139 -113.12916565 64.26742554 C-109.79296579 58.02312225 -106.14145873 52.09972785 -102.12916565 46.26742554 C-104.51829499 41.78399559 -106.9196437 37.4226067 -109.94166565 33.32992554 C-112.12916565 30.26742554 -112.12916565 30.26742554 -112.12916565 28.26742554 C-107.37836649 27.80456013 -102.85986733 27.53880104 -98.12916565 28.26742554 C-95.48779717 30.57041602 -94.25969256 32.97861998 -93.12916565 36.26742554 C-91.0087793 33.65228237 -88.99824821 31.07104938 -87.12916565 28.26742554 C-84.1955719 27.93930054 -84.1955719 27.93930054 -80.69166565 28.01742554 C-79.53795471 28.03289429 -78.38424377 28.04836304 -77.1955719 28.06430054 C-74.12916565 28.26742554 -74.12916565 28.26742554 -71.12916565 29.26742554 C-71.12916565 25.96742554 -71.12916565 22.66742554 -71.12916565 19.26742554 C-69.15007167 19.24056001 -67.17087594 19.22109178 -65.19166565 19.20492554 C-64.08951721 19.19332397 -62.98736877 19.18172241 -61.8518219 19.16976929 C-59.12916565 19.26742554 -59.12916565 19.26742554 -58.12916565 20.26742554 C-57.98723228 23.27073572 -58.08680187 26.25959688 -58.12916565 29.26742554 C-55.15916565 29.26742554 -52.18916565 29.26742554 -49.12916565 29.26742554 C-49.12916565 32.23742554 -49.12916565 35.20742554 -49.12916565 38.26742554 C-52.09916565 38.26742554 -55.06916565 38.26742554 -58.12916565 38.26742554 C-57.63416565 46.18742554 -57.63416565 46.18742554 -57.12916565 54.26742554 C-54.81916565 54.26742554 -52.50916565 54.26742554 -50.12916565 54.26742554 C-49.79916565 54.92742554 -49.46916565 55.58742554 -49.12916565 56.26742554 C-48.74284973 55.58978149 -48.35653381 54.91213745 -47.95851135 54.21395874 C-43.38748252 46.20909044 -38.77875328 38.22690815 -34.12916565 30.26742554 C-33.20974182 28.69348022 -33.20974182 28.69348022 -32.27174377 27.08773804 C-30.59606506 24.24076551 -28.89876178 21.40814569 -27.19166565 18.57992554 C-26.69771301 17.73921509 -26.20376038 16.89850464 -25.69483948 16.03231812 C-19.33568057 5.62901756 -12.44590413 -0.050921 0 0 Z M58.55833435 12.95492554 C56.58995492 15.14465031 56.58995492 15.14465031 56.99583435 17.89242554 C57.73551348 20.41147679 57.73551348 20.41147679 59.87083435 22.26742554 C62.87083435 22.60075887 62.87083435 22.60075887 65.87083435 22.26742554 C68.24303125 20.32284239 68.24303125 20.32284239 68.18333435 16.76742554 C68.08020935 15.61242554 67.97708435 14.45742554 67.87083435 13.26742554 C64.20475467 10.82337242 62.23296873 10.27343559 58.55833435 12.95492554 Z M14.87083435 18.26742554 C12.28453822 21.67663408 12.71102874 25.11247959 12.87083435 29.26742554 C11.22083435 29.26742554 9.57083435 29.26742554 7.87083435 29.26742554 C7.87083435 31.57742554 7.87083435 33.88742554 7.87083435 36.26742554 C9.52083435 36.26742554 11.17083435 36.26742554 12.87083435 36.26742554 C12.87083435 45.17742554 12.87083435 54.08742554 12.87083435 63.26742554 C16.50083435 63.26742554 20.13083435 63.26742554 23.87083435 63.26742554 C23.87083435 54.35742554 23.87083435 45.44742554 23.87083435 36.26742554 C26.51083435 36.26742554 29.15083435 36.26742554 31.87083435 36.26742554 C31.87083435 33.95742554 31.87083435 31.64742554 31.87083435 29.26742554 C29.23083435 29.26742554 26.59083435 29.26742554 23.87083435 29.26742554 C24.20083435 27.28742554 24.53083435 25.30742554 24.87083435 23.26742554 C27.51083435 23.26742554 30.15083435 23.26742554 32.87083435 23.26742554 C33.86083435 20.95742554 34.85083435 18.64742554 35.87083435 16.26742554 C29.40129965 11.95440241 20.43950837 12.99183962 14.87083435 18.26742554 Z M-25.12916565 30.26742554 C-24.58192881 33.64205268 -24.07426565 35.34977553 -22.12916565 38.26742554 C-21.48979065 37.93742554 -20.85041565 37.60742554 -20.19166565 37.26742554 C-15.80233588 35.834175 -10.38018794 35.14191439 -6.12916565 37.26742554 C-5.50416565 39.82992554 -5.50416565 39.82992554 -5.12916565 42.26742554 C-6.14236877 42.22101929 -7.1555719 42.17461304 -8.19947815 42.12680054 C-9.55101097 42.08925796 -10.90257593 42.05286047 -12.25416565 42.01742554 C-12.9193219 41.98390991 -13.58447815 41.95039429 -14.26979065 41.91586304 C-19.40857792 41.8151025 -22.16991517 43.07025636 -26.12916565 46.26742554 C-28.2524279 48.94458229 -28.13050149 50.2306898 -28.00416565 53.70492554 C-27.05137666 57.58413785 -25.93402737 59.46256382 -23.12916565 62.26742554 C-18.4821334 63.81643629 -13.59496196 64.29596353 -8.9846344 62.37289429 C-7.320113 61.41350619 -5.71723835 60.34866653 -4.12916565 59.26742554 C-4.45916565 60.25742554 -4.78916565 61.24742554 -5.12916565 62.26742554 C-4.09509892 63.52691603 -4.09509892 63.52691603 -1.8440094 63.36508179 C-0.92748596 63.35348022 -0.01096252 63.34187866 0.93333435 63.32992554 C1.85243591 63.3209021 2.77153748 63.31187866 3.7184906 63.30258179 C4.42876404 63.29098022 5.13903748 63.27937866 5.87083435 63.26742554 C5.9873516 58.8926508 6.05819435 54.51827727 6.12083435 50.14242554 C6.15434998 48.90492554 6.1878656 47.66742554 6.22239685 46.39242554 C6.44316165 37.47411127 6.44316165 37.47411127 1.87083435 30.26742554 C-6.90468735 25.00211252 -15.93354604 26.98048066 -25.12916565 30.26742554 Z M57.87083435 27.26742554 C57.70359324 32.23346267 57.54299652 37.19965231 57.38865662 42.16610718 C57.3351632 43.85692177 57.27982838 45.54767912 57.22264099 47.2383728 C57.14093394 49.66329601 57.0657704 52.08834547 56.9919281 54.51351929 C56.96489304 55.27394028 56.93785797 56.03436127 56.91000366 56.81782532 C56.85792136 58.63365888 56.8589685 60.45088396 56.87083435 62.26742554 C57.20083435 62.59742554 57.53083435 62.92742554 57.87083435 63.26742554 C61.17083435 63.26742554 64.47083435 63.26742554 67.87083435 63.26742554 C67.87083435 51.71742554 67.87083435 40.16742554 67.87083435 28.26742554 C64.57083435 27.93742554 61.27083435 27.60742554 57.87083435 27.26742554 Z M73.87083435 35.26742554 C70.63766175 40.38377938 71.29125208 46.44986847 71.87083435 52.26742554 C74.13885905 57.23963354 77.17436771 59.56945534 81.87083435 62.26742554 C87.7219898 64.21781069 93.74522844 64.13996577 99.37083435 61.51742554 C102.42903774 59.93818936 103.54073465 58.43306283 104.87083435 55.26742554 C102.89083435 53.94742554 100.91083435 52.62742554 98.87083435 51.26742554 C98.06645935 51.73148804 98.06645935 51.73148804 97.24583435 52.20492554 C93.25261334 53.99136652 90.27689814 54.73611347 86.05833435 53.32992554 C83.41169009 50.8345181 83.03066647 48.86051836 82.79270935 45.27133179 C82.89804121 42.56956952 83.52499919 40.60492871 84.87083435 38.26742554 C87.90115877 36.75226333 90.52198397 37.09714501 93.87083435 37.26742554 C94.71645935 37.67992554 95.56208435 38.09242554 96.43333435 38.51742554 C97.23770935 38.76492554 98.04208435 39.01242554 98.87083435 39.26742554 C102.18264167 37.50461433 102.18264167 37.50461433 104.87083435 35.26742554 C101.56466188 30.79436867 99.53827567 28.37868854 93.87083435 27.26742554 C85.41121302 26.59602702 79.53564409 28.63150555 73.87083435 35.26742554 Z M108.87083435 30.26742554 C108.54083435 30.92742554 108.21083435 31.58742554 107.87083435 32.26742554 C108.7644704 34.8767382 108.7644704 34.8767382 109.87083435 37.26742554 C110.67520935 37.10242554 111.47958435 36.93742554 112.30833435 36.76742554 C115.10228082 36.3752927 117.74694754 36.10930092 120.55833435 36.01742554 C121.30470154 35.99164429 122.05106873 35.96586304 122.8200531 35.93930054 C125.44524549 36.35933132 126.26238939 37.18762359 127.87083435 39.26742554 C128.20083435 40.25742554 128.53083435 41.24742554 128.87083435 42.26742554 C127.85763123 42.23262085 126.8444281 42.19781616 125.80052185 42.16195679 C124.44897605 42.13379958 123.09741217 42.10650151 121.74583435 42.07992554 C120.74809998 42.04222046 120.74809998 42.04222046 119.73020935 42.00375366 C115.00069193 41.93420194 111.85798089 42.72961268 107.87083435 45.26742554 C105.20247024 49.2699717 105.03681055 52.56055853 105.87083435 57.26742554 C108.0524258 60.02312 109.74260929 61.703313 112.87083435 63.26742554 C118.30025588 63.82210121 122.41918253 63.74527852 126.87083435 60.26742554 C127.20083435 59.93742554 127.53083435 59.60742554 127.87083435 59.26742554 C128.20083435 60.58742554 128.53083435 61.90742554 128.87083435 63.26742554 C132.17083435 63.26742554 135.47083435 63.26742554 138.87083435 63.26742554 C139.01641845 58.72609757 139.10500769 54.18537213 139.18333435 49.64242554 C139.24617615 47.71463257 139.24617615 47.71463257 139.31028748 45.74789429 C139.66436137 38.10254023 139.66436137 38.10254023 136.48802185 31.45492554 C131.65667366 27.41678376 127.74759961 26.88535279 121.58177185 27.00570679 C117.18094632 27.43057035 112.92285883 28.48289759 108.87083435 30.26742554 Z M45.87083435 31.26742554 C45.54083435 31.59742554 45.21083435 31.92742554 44.87083435 32.26742554 C44.54083435 30.94742554 44.21083435 29.62742554 43.87083435 28.26742554 C40.24083435 28.26742554 36.61083435 28.26742554 32.87083435 28.26742554 C32.87083435 39.81742554 32.87083435 51.36742554 32.87083435 63.26742554 C36.50083435 63.26742554 40.13083435 63.26742554 43.87083435 63.26742554 C43.8966156 61.79789429 43.92239685 60.32836304 43.94895935 58.81430054 C44.00524056 56.88197918 44.06258789 54.94968866 44.12083435 53.01742554 C44.14210388 51.56529663 44.14210388 51.56529663 44.1638031 50.08383179 C44.41074677 42.92246549 44.41074677 42.92246549 46.71458435 39.64242554 C49.40932618 37.92403945 51.71229415 37.55456556 54.87083435 37.26742554 C54.87083435 33.96742554 54.87083435 30.66742554 54.87083435 27.26742554 C50.8569388 27.26742554 49.07709911 28.96727908 45.87083435 31.26742554 Z " fill="#FEFEFE" transform="translate(299.12916564941406,207.73257446289063)"/>
<path d="M0 0 C4.29 0 8.58 0 13 0 C14.98 6.6 16.96 13.2 19 20 C20.7208877 17.41866846 21.4651263 15.87205794 22.2890625 12.98828125 C22.50820313 12.23095703 22.72734375 11.47363281 22.953125 10.69335938 C23.28570312 9.51483398 23.28570312 9.51483398 23.625 8.3125 C23.85445312 7.51521484 24.08390625 6.71792969 24.3203125 5.89648438 C24.88486236 3.9323213 25.44304988 1.96633153 26 0 C29.96 0 33.92 0 38 0 C40.7047418 6.89709158 42.85761818 13.90797742 45 21 C48.465 10.605 48.465 10.605 52 0 C55.96 0 59.92 0 64 0 C61.74234805 7.79982336 59.13811086 15.42829209 56.375 23.0625 C55.96765625 24.20138672 55.5603125 25.34027344 55.140625 26.51367188 C54.75132813 27.59326172 54.36203125 28.67285156 53.9609375 29.78515625 C53.60821777 30.76363525 53.25549805 31.74211426 52.89208984 32.75024414 C52 35 52 35 51 36 C46.66469082 36.14393457 42.33842269 36.04212061 38 36 C35.03 26.595 35.03 26.595 32 17 C30.02 23.27 28.04 29.54 26 36 C21.71 36 17.42 36 13 36 C9.63210235 28.21173669 6.59848003 20.34400172 3.6875 12.375 C3.32591797 11.39063965 2.96433594 10.4062793 2.59179688 9.39208984 C2.25599609 8.46605957 1.92019531 7.5400293 1.57421875 6.5859375 C1.27088623 5.7511084 0.96755371 4.9162793 0.6550293 4.05615234 C0 2 0 2 0 0 Z " fill="#FDFDFD" transform="translate(13,236)"/>
<path d="M0 0 C6.06692056 0.41131665 10.13298719 1.7630747 14.5625 6 C18.43332457 11.92008463 18.6875 16.13791737 18.6875 23.25 C10.4375 23.25 2.1875 23.25 -6.3125 23.25 C-2.78492357 27.62675169 -2.78492357 27.62675169 1.625 27.625 C4.97440571 27.46222514 7.66288596 26.76230702 10.6875 25.25 C12.3375 26.9 13.9875 28.55 15.6875 30.25 C14.22913185 34.09478875 12.32291701 35.4322915 8.6875 37.25 C2.24670019 39.1716378 -4.32675956 38.91379875 -10.5234375 36.296875 C-14.34833068 34.0587279 -16.4129573 30.7920732 -18.625 27 C-20.29304657 20.32781373 -20.09676913 14.04850691 -16.6484375 8.0078125 C-13.79410445 4.25211112 -10.27545666 1.88796092 -5.8125 0.4375 C-3.87496109 0.29218458 -1.93747054 0.14622419 0 0 Z M-5.0625 11.625 C-7.52943046 13.92686401 -7.52943046 13.92686401 -7.3125 16.25 C-2.6925 16.25 1.9275 16.25 6.6875 16.25 C5.21110997 11.18991361 5.21110997 11.18991361 1.6875 9.25 C-2.41355307 8.81425342 -2.41355307 8.81425342 -5.0625 11.625 Z " fill="#FDFDFD" transform="translate(170.3125,234.75)"/>
<path d="M0 0 C3.26099491 2.98571612 5.59633884 5.78901651 7 10 C7 13.3 7 16.6 7 20 C-0.92 20.33 -8.84 20.66 -17 21 C-14.46267997 24.10200395 -14.46267997 24.10200395 -12.0625 24.36328125 C-11.381875 24.34652344 -10.70125 24.32976562 -10 24.3125 C-9.319375 24.30863281 -8.63875 24.30476563 -7.9375 24.30078125 C-5.67808891 24.08908293 -5.67808891 24.08908293 -3 22 C0.79344475 22.24473837 2.53580477 24.27178385 5 27 C3.99877183 29.61859676 3.33393563 30.79889378 0.8984375 32.265625 C-6.96267373 35.33218851 -13.18287518 36.36740899 -21.1796875 32.96484375 C-25.71761827 30.55954568 -28.05362893 27.43819279 -29.875 22.75 C-31.68452266 16.53558218 -31.27124118 11.40627796 -28.25 5.6875 C-20.84791982 -3.15387354 -10.27992611 -5.97234574 0 0 Z M-18 10 C-18 10.99 -18 11.98 -18 13 C-13.71 13 -9.42 13 -5 13 C-5.33 11.35 -5.66 9.7 -6 8 C-11.1688203 4.5541198 -13.85289884 5.96809609 -18 10 Z " fill="#FDFDFD" transform="translate(104,238)"/>
<path d="M0 0 C3.3580107 2.2386738 5.40717603 4.10457726 6.8125 7.875 C7.30465299 12.67603341 7.1881871 17.43038313 7.0625 22.25 C7.04445312 23.55839844 7.02640625 24.86679687 7.0078125 26.21484375 C6.96079984 29.43521078 6.88906064 32.65519994 6.8125 35.875 C2.8525 35.875 -1.1075 35.875 -5.1875 35.875 C-5.22488281 34.32167969 -5.26226562 32.76835937 -5.30078125 31.16796875 C-5.36643224 29.132788 -5.43287988 27.09763283 -5.5 25.0625 C-5.52255859 24.03833984 -5.54511719 23.01417969 -5.56835938 21.95898438 C-5.6215332 20.48461914 -5.6215332 20.48461914 -5.67578125 18.98046875 C-5.70196533 18.07449951 -5.72814941 17.16853027 -5.75512695 16.23510742 C-6.26450562 13.45466495 -6.89325483 12.49686966 -9.1875 10.875 C-12.27083333 10.875 -12.27083333 10.875 -15.1875 11.875 C-17.31030563 15.05920845 -17.46769537 16.08037255 -17.6015625 19.76171875 C-17.65957031 21.1684082 -17.65957031 21.1684082 -17.71875 22.60351562 C-17.7496875 23.57998047 -17.780625 24.55644531 -17.8125 25.5625 C-17.87050781 27.04459961 -17.87050781 27.04459961 -17.9296875 28.55664062 C-18.02395399 30.9957861 -18.1068159 33.43536747 -18.1875 35.875 C-22.1475 35.875 -26.1075 35.875 -30.1875 35.875 C-30.1875 23.995 -30.1875 12.115 -30.1875 -0.125 C-26.2275 -0.125 -22.2675 -0.125 -18.1875 -0.125 C-17.8575 0.865 -17.5275 1.855 -17.1875 2.875 C-16.589375 2.400625 -15.99125 1.92625 -15.375 1.4375 C-10.55228017 -2.00729988 -5.46705301 -1.92954812 0 0 Z " fill="#FEFEFE" transform="translate(143.1875,236.125)"/>
<path d="M0 0 C1.50433594 0.01353516 1.50433594 0.01353516 3.0390625 0.02734375 C3.80992187 0.03894531 4.58078125 0.05054688 5.375 0.0625 C5.5078125 2.41796875 5.5078125 2.41796875 5.375 5.0625 C2.68761603 7.98700609 1.1640475 8.9851424 -2.8125 9.375 C-5.625 9.0625 -5.625 9.0625 -7.625 8.0625 C-8.71536928 5.0887656 -8.66364166 4.17842499 -7.625 1.0625 C-4.98041621 -0.25979189 -2.94738699 -0.03427194 0 0 Z " fill="#FDFDFD" transform="translate(422.625,254.9375)"/>
<path d="M0 0 C0.91007812 0.00902344 1.82015625 0.01804688 2.7578125 0.02734375 C3.45648438 0.03894531 4.15515625 0.05054688 4.875 0.0625 C5.125 2.875 5.125 2.875 4.875 6.0625 C2.62327097 8.66064888 1.22482295 9.01966454 -2.1875 9.4375 C-5.125 9.0625 -5.125 9.0625 -7.0625 7.875 C-8.125 6.0625 -8.125 6.0625 -7.9375 3.4375 C-6.52067884 -0.70397724 -3.92096417 -0.05026877 0 0 Z " fill="#FCFDFD" transform="translate(289.125,254.9375)"/>
</svg>
