<?xml version="1.0" encoding="UTF-8"?>
<svg version="1.1" xmlns="http://www.w3.org/2000/svg" width="500" height="500">
<path d="M0 0 C1.36236521 -0.00763049 2.72472615 -0.0160595 4.08708191 -0.02522278 C7.7707784 -0.04707569 11.45439195 -0.05595315 15.13814592 -0.06104922 C17.44132365 -0.06470101 19.74447989 -0.07094503 22.04764938 -0.07805061 C30.08695169 -0.10250439 38.12618975 -0.11559005 46.16552734 -0.11914062 C53.65418648 -0.122782 61.14243734 -0.15273047 68.63097155 -0.19454521 C75.06851912 -0.22922909 81.50593107 -0.24468866 87.94357145 -0.24538666 C91.78521085 -0.24617955 95.62643297 -0.25492457 99.46797562 -0.28338432 C103.07809374 -0.30953594 106.68744744 -0.31178745 110.29761696 -0.29572868 C112.25160644 -0.29304696 114.20558088 -0.31511301 116.15943909 -0.33792114 C125.71042468 -0.25796707 125.71042468 -0.25796707 128.81782532 2.6315155 C131.09196874 6.19495341 131.13729445 8.14021024 130.52490234 12.30639648 C129.07543945 15.58862305 129.07543945 15.58862305 127.05224609 18.94702148 C126.69151505 19.55471375 126.330784 20.16240601 125.9591217 20.78851318 C124.80768162 22.72003694 123.63548158 24.63795591 122.46240234 26.55639648 C121.70126634 27.82771246 120.94148889 29.09984284 120.18310547 30.37280273 C118.33916923 33.45721151 116.46857708 36.52414812 114.58309937 39.58331299 C113.56935938 41.2340062 112.56890824 42.89283833 111.5690918 44.55200195 C110.97185303 45.52540527 110.37461426 46.49880859 109.75927734 47.50170898 C109.24461914 48.34749512 108.72996094 49.19328125 108.19970703 50.06469727 C104.59286938 54.89239163 99.41773944 58.1303074 93.52490234 59.30639648 C91.59103012 59.4031389 89.65416936 59.4455409 87.71789551 59.4535675 C86.53178177 59.46072281 85.34566803 59.46787811 84.12361145 59.47525024 C82.8258226 59.47793915 81.52803375 59.48062805 80.19091797 59.48339844 C78.80767141 59.48966615 77.42442653 59.49631322 76.04118347 59.50331116 C71.50451826 59.52430719 66.96785286 59.53470536 62.43115234 59.54467773 C60.86859622 59.54872614 59.30604027 59.55284309 57.7434845 59.55702782 C50.40614507 59.57606508 43.06881564 59.59030246 35.73145628 59.59863979 C27.26030291 59.60842476 18.78940996 59.63478298 10.31834841 59.67514068 C3.76963721 59.70527088 -2.77899915 59.72010547 -9.32777834 59.7234208 C-13.23924101 59.72577369 -17.15042498 59.73476568 -21.06181335 59.75988197 C-24.73909085 59.78311565 -28.41590513 59.78741531 -32.09323692 59.77712059 C-34.08680045 59.77638717 -36.08034021 59.79550868 -38.07380676 59.81518555 C-39.2599205 59.80824173 -40.44603424 59.80129791 -41.66809082 59.79414368 C-42.69899086 59.79653203 -43.7298909 59.79892038 -44.79203033 59.80138111 C-48.19316459 59.17392419 -49.36274547 57.99258447 -51.47509766 55.30639648 C-52.22509766 52.55639648 -52.22509766 52.55639648 -52.47509766 50.30639648 C-53.10158203 50.11303711 -53.72806641 49.91967773 -54.37353516 49.72045898 C-55.19080078 49.46006836 -56.00806641 49.19967773 -56.85009766 48.93139648 C-58.06826172 48.54854492 -58.06826172 48.54854492 -59.31103516 48.15795898 C-61.47509766 47.30639648 -61.47509766 47.30639648 -63.47509766 45.30639648 C-64.68831098 41.9185555 -64.57638461 38.62479667 -64.53759766 35.05639648 C-64.52857422 33.97874023 -64.51955078 32.90108398 -64.51025391 31.79077148 C-64.49865234 30.97092773 -64.48705078 30.15108398 -64.47509766 29.30639648 C-65.46509766 29.30639648 -66.45509766 29.30639648 -67.47509766 29.30639648 C-67.80509766 28.64639648 -68.13509766 27.98639648 -68.47509766 27.30639648 C-71.49802147 30.87755634 -71.49802147 30.87755634 -72.28759766 35.22045898 C-71.30519899 37.74257864 -69.97484659 39.72282707 -68.41259766 41.93139648 C-65.47509766 46.09227884 -65.47509766 46.09227884 -65.47509766 48.30639648 C-75.35850573 49.22657586 -75.35850573 49.22657586 -78.09619141 46.97045898 C-79.16259766 45.30639648 -79.16259766 45.30639648 -80.47509766 42.30639648 C-80.90822266 43.29639648 -81.34134766 44.28639648 -81.78759766 45.30639648 C-82.85400391 46.97045898 -82.85400391 46.97045898 -84.47509766 48.30639648 C-88.18835562 48.85136384 -91.7475903 48.65344027 -95.47509766 48.30639648 C-94.98138672 47.46334961 -94.48767578 46.62030273 -93.97900391 45.75170898 C-93.33833984 44.65600586 -92.69767578 43.56030273 -92.03759766 42.43139648 C-91.39951172 41.34084961 -90.76142578 40.25030273 -90.10400391 39.12670898 C-89.1886538 37.54185819 -88.29358625 35.94337366 -87.47509766 34.30639648 C-88.93162684 31.65756373 -88.93162684 31.65756373 -90.91259766 28.80639648 C-94.47509766 23.50796204 -94.47509766 23.50796204 -94.47509766 21.30639648 C-91.07470781 20.95597463 -87.86050455 20.76515588 -84.47509766 21.30639648 C-81.85009766 24.30639648 -81.85009766 24.30639648 -80.47509766 27.30639648 C-79.79447266 25.82139648 -79.79447266 25.82139648 -79.10009766 24.30639648 C-76.47509766 21.30639648 -76.47509766 21.30639648 -74.05322266 20.87280273 C-67.36162503 20.8631328 -67.36162503 20.8631328 -64.47509766 22.30639648 C-64.47509766 19.99639648 -64.47509766 17.68639648 -64.47509766 15.30639648 C-61.17509766 15.30639648 -57.87509766 15.30639648 -54.47509766 15.30639648 C-54.47509766 17.61639648 -54.47509766 19.92639648 -54.47509766 22.30639648 C-52.16509766 22.30639648 -49.85509766 22.30639648 -47.47509766 22.30639648 C-47.47509766 24.61639648 -47.47509766 26.92639648 -47.47509766 29.30639648 C-49.78509766 29.30639648 -52.09509766 29.30639648 -54.47509766 29.30639648 C-54.47509766 33.26639648 -54.47509766 37.22639648 -54.47509766 41.30639648 C-51.11998045 41.30078616 -51.11998045 41.30078616 -47.47509766 40.30639648 C-45.65614034 38.15143353 -44.52367206 36.48511491 -43.24853516 34.04077148 C-42.71518051 33.0951535 -42.71518051 33.0951535 -42.17105103 32.13043213 C-41.04064932 30.11775583 -39.94423213 28.08898022 -38.85009766 26.05639648 C-37.74351738 24.04166721 -36.63004277 22.03121056 -35.50772095 20.02520752 C-34.81271567 18.77880144 -34.12747433 17.52688089 -33.45394897 16.26873779 C-29.93391625 9.86934846 -24.57261371 3.89513835 -17.65322876 1.21226501 C-11.89855637 -0.32685083 -5.91133174 0.00310177 0 0 Z M32.52490234 10.30639648 C31.86490234 10.96639648 31.20490234 11.62639648 30.52490234 12.30639648 C30.84531632 14.90920217 30.84531632 14.90920217 31.52490234 17.30639648 C33.92209666 17.98598251 33.92209666 17.98598251 36.52490234 18.30639648 C37.18490234 17.64639648 37.84490234 16.98639648 38.52490234 16.30639648 C38.20448837 13.7035908 38.20448837 13.7035908 37.52490234 11.30639648 C35.12770802 10.62681046 35.12770802 10.62681046 32.52490234 10.30639648 Z M-1.47509766 16.30639648 C-2.36565502 19.94821984 -2.36565502 19.94821984 -2.47509766 23.30639648 C-3.46509766 23.30639648 -4.45509766 23.30639648 -5.47509766 23.30639648 C-5.47509766 24.95639648 -5.47509766 26.60639648 -5.47509766 28.30639648 C-4.48509766 28.30639648 -3.49509766 28.30639648 -2.47509766 28.30639648 C-2.47509766 34.90639648 -2.47509766 41.50639648 -2.47509766 48.30639648 C0.16490234 48.30639648 2.80490234 48.30639648 5.52490234 48.30639648 C5.52490234 41.70639648 5.52490234 35.10639648 5.52490234 28.30639648 C7.50490234 28.30639648 9.48490234 28.30639648 11.52490234 28.30639648 C11.52490234 26.65639648 11.52490234 25.00639648 11.52490234 23.30639648 C9.54490234 23.30639648 7.56490234 23.30639648 5.52490234 23.30639648 C6.18490234 21.65639648 6.84490234 20.00639648 7.52490234 18.30639648 C9.17490234 18.30639648 10.82490234 18.30639648 12.52490234 18.30639648 C13.18490234 16.65639648 13.84490234 15.00639648 14.52490234 13.30639648 C9.00573833 10.54681448 2.42137929 11.55756521 -1.47509766 16.30639648 Z M-30.47509766 24.30639648 C-29.81509766 25.95639648 -29.15509766 27.60639648 -28.47509766 29.30639648 C-27.95947266 29.14139648 -27.44384766 28.97639648 -26.91259766 28.80639648 C-23.74145889 28.15590648 -20.70291431 28.24432309 -17.47509766 28.30639648 C-16.81509766 29.95639648 -16.15509766 31.60639648 -15.47509766 33.30639648 C-16.28333984 33.24838867 -17.09158203 33.19038086 -17.92431641 33.13061523 C-24.69765962 32.77041539 -24.69765962 32.77041539 -30.78759766 35.36889648 C-32.7567687 38.26630157 -32.7567687 38.26630157 -32.60009766 41.93139648 C-31.7649441 45.37530018 -31.7649441 45.37530018 -29.28759766 47.24389648 C-26.02915682 48.47486302 -23.9328672 48.73861768 -20.47509766 48.30639648 C-17.65729232 46.917544 -17.65729232 46.917544 -15.47509766 45.30639648 C-15.47509766 46.29639648 -15.47509766 47.28639648 -15.47509766 48.30639648 C-12.83509766 48.30639648 -10.19509766 48.30639648 -7.47509766 48.30639648 C-7.39393773 45.24336071 -7.33452357 42.18248834 -7.28759766 39.11889648 C-7.26246094 38.25458008 -7.23732422 37.39026367 -7.21142578 36.49975586 C-7.15528894 31.61585104 -7.20939308 28.22676444 -10.47509766 24.30639648 C-13.91449692 22.01346364 -15.30072446 22.03620011 -19.35009766 22.05639648 C-20.37876953 22.05124023 -21.40744141 22.04608398 -22.46728516 22.04077148 C-25.51137965 22.30960061 -27.71855116 23.02475494 -30.47509766 24.30639648 Z M12.52490234 22.30639648 C12.52490234 30.88639648 12.52490234 39.46639648 12.52490234 48.30639648 C15.16490234 48.30639648 17.80490234 48.30639648 20.52490234 48.30639648 C21.01990234 39.39639648 21.01990234 39.39639648 21.52490234 30.30639648 C23.83490234 29.64639648 26.14490234 28.98639648 28.52490234 28.30639648 C28.52490234 26.32639648 28.52490234 24.34639648 28.52490234 22.30639648 C24.5941459 22.88092395 24.5941459 22.88092395 21.52490234 25.30639648 C21.19490234 24.31639648 20.86490234 23.32639648 20.52490234 22.30639648 C17.88490234 22.30639648 15.24490234 22.30639648 12.52490234 22.30639648 Z M30.52490234 22.30639648 C30.52490234 30.88639648 30.52490234 39.46639648 30.52490234 48.30639648 C33.16490234 48.30639648 35.80490234 48.30639648 38.52490234 48.30639648 C38.52490234 39.72639648 38.52490234 31.14639648 38.52490234 22.30639648 C35.88490234 22.30639648 33.24490234 22.30639648 30.52490234 22.30639648 Z M42.71240234 27.36889648 C40.95352793 31.71979635 40.73356827 35.68411804 41.52490234 40.30639648 C43.20262717 43.68255879 45.59903991 45.71487326 48.77490234 47.74389648 C52.84720489 48.57686746 56.52071554 48.46493155 60.52490234 47.30639648 C63.57128812 44.93186087 63.57128812 44.93186087 65.52490234 42.30639648 C62.09179264 40.01765668 61.38020885 40.1620996 57.46240234 40.68139648 C56.145625 40.84768555 56.145625 40.84768555 54.80224609 41.01733398 C53.67496094 41.16041992 53.67496094 41.16041992 52.52490234 41.30639648 C51.86490234 41.30639648 51.20490234 41.30639648 50.52490234 41.30639648 C49.09633092 32.73496791 49.09633092 32.73496791 51.52490234 29.30639648 C55.19156901 29.30639648 58.85823568 29.30639648 62.52490234 29.30639648 C64.27605964 27.88972178 64.27605964 27.88972178 65.52490234 26.30639648 C61.01152326 22.5056562 57.75386849 21.72063224 51.86083984 21.98608398 C47.60418345 22.56977265 45.48625538 24.21244303 42.71240234 27.36889648 Z M68.52490234 24.30639648 C68.85490234 25.95639648 69.18490234 27.60639648 69.52490234 29.30639648 C70.08693359 29.14268555 70.64896484 28.97897461 71.22802734 28.81030273 C73.65549291 28.27774651 75.79379915 28.20740967 78.27490234 28.24389648 C79.07412109 28.25291992 79.87333984 28.26194336 80.69677734 28.27124023 C81.30005859 28.2828418 81.90333984 28.29444336 82.52490234 28.30639648 C82.52490234 29.62639648 82.52490234 30.94639648 82.52490234 32.30639648 C81.70505859 32.33217773 80.88521484 32.35795898 80.04052734 32.38452148 C78.42404297 32.46959961 78.42404297 32.46959961 76.77490234 32.55639648 C75.17388672 32.62600586 75.17388672 32.62600586 73.54052734 32.69702148 C69.94243864 33.4240964 68.72036011 34.40693207 66.52490234 37.30639648 C65.77490234 40.80639648 65.77490234 40.80639648 66.52490234 44.30639648 C68.33714627 47.0237555 68.33714627 47.0237555 71.52490234 48.30639648 C76.21223827 48.48699437 79.60370958 47.92052499 83.52490234 45.30639648 C83.52490234 46.29639648 83.52490234 47.28639648 83.52490234 48.30639648 C85.83490234 48.30639648 88.14490234 48.30639648 90.52490234 48.30639648 C90.64122747 44.89001695 90.71219132 41.47414751 90.77490234 38.05639648 C90.80841797 37.08831055 90.84193359 36.12022461 90.87646484 35.12280273 C91.06355562 29.53931943 91.06355562 29.53931943 88.63427734 24.69702148 C85.24587995 22.46318913 83.2634263 22.14630531 79.21240234 22.11889648 C78.26751953 22.1047168 77.32263672 22.09053711 76.34912109 22.07592773 C73.38083352 22.31815314 71.21623069 23.06613042 68.52490234 24.30639648 Z M94.52490234 41.30639648 C93.84531632 43.7035908 93.84531632 43.7035908 93.52490234 46.30639648 C94.18490234 46.96639648 94.84490234 47.62639648 95.52490234 48.30639648 C97.63311031 47.98787878 97.63311031 47.98787878 99.52490234 47.30639648 C99.90709001 45.65024991 100.23885336 43.98182624 100.52490234 42.30639648 C99.45845119 41.01006028 99.45845119 41.01006028 96.96240234 41.24389648 C96.15802734 41.26452148 95.35365234 41.28514648 94.52490234 41.30639648 Z " fill="#000000" transform="translate(286.47509765625,206.693603515625)"/>
<path d="M0 0 C2.97 0 5.94 0 9 0 C9.33 0.66 9.66 1.32 10 2 C10.99 1.34 11.98 0.68 13 0 C17.53430468 -0.73024382 20.9991301 -0.61755802 24.9375 1.8125 C27 4 27 4 29 7 C29.5775 6.21625 30.155 5.4325 30.75 4.625 C33.5123411 1.40226872 35.37233929 0.21144837 39.5859375 -0.3359375 C45.55010773 -0.4194693 49.40447009 -0.24202761 54 4 C56.6731939 8.30630553 56.14555731 12.05105161 56 17 C47.585 17.495 47.585 17.495 39 18 C40.1551251 19.38177162 40.1551251 19.38177162 43.3125 19.125 C46.14648763 19.02893262 48.33595099 18.85249568 51 18 C52.32 19.65 53.64 21.3 55 23 C49.58962614 27.65893304 46.1489541 28.49303132 39 28 C34.30444972 26.25067735 31.86695808 24.07990188 29 20 C28.67 22.31 28.34 24.62 28 27 C24.7 27 21.4 27 18 27 C17.67 21.39 17.34 15.78 17 10 C15.35 9.67 13.7 9.34 12 9 C9.59880941 12.60178588 9.56228678 15.50866369 9.375 19.6875 C9.31699219 20.7403418 9.31699219 20.7403418 9.2578125 21.81445312 C9.1637666 23.54254655 9.0808032 25.27123675 9 27 C6.03 27 3.06 27 0 27 C0 18.09 0 9.18 0 0 Z M40 7 C39.34 8.32 38.68 9.64 38 11 C40.97 11 43.94 11 47 11 C46.34 9.68 45.68 8.36 45 7 C43.35 7 41.7 7 40 7 Z " fill="#010101" transform="translate(137,228)"/>
<path d="M0 0 C3.3 0 6.6 0 10 0 C11.65 4.95 13.3 9.9 15 15 C16.27499705 10.4386325 16.27499705 10.4386325 17.54272461 5.87524414 C18.88888889 1.11111111 18.88888889 1.11111111 20 0 C21.51928038 -0.07179964 23.04167482 -0.08392007 24.5625 -0.0625 C25.38878906 -0.05347656 26.21507813 -0.04445312 27.06640625 -0.03515625 C27.70449219 -0.02355469 28.34257813 -0.01195312 29 0 C29.41572266 1.39025391 29.41572266 1.39025391 29.83984375 2.80859375 C30.20207031 4.00613281 30.56429687 5.20367187 30.9375 6.4375 C31.29714844 7.63246094 31.65679687 8.82742187 32.02734375 10.05859375 C32.70889142 12.85867545 32.70889142 12.85867545 34 14 C34.27714844 13.07316406 34.55429688 12.14632812 34.83984375 11.19140625 C35.20207031 9.99386719 35.56429687 8.79632813 35.9375 7.5625 C36.29714844 6.36753906 36.65679687 5.17257813 37.02734375 3.94140625 C38 1 38 1 39 0 C40.51928038 -0.07179964 42.04167482 -0.08392007 43.5625 -0.0625 C44.38878906 -0.05347656 45.21507812 -0.04445312 46.06640625 -0.03515625 C46.70449219 -0.02355469 47.34257813 -0.01195312 48 0 C46.27172783 6.3066774 44.16302164 12.44105059 41.875 18.5625 C41.47643799 19.63467773 41.47643799 19.63467773 41.06982422 20.72851562 C39.12600343 25.87399657 39.12600343 25.87399657 38 27 C36.48071962 27.07179964 34.95832518 27.08392007 33.4375 27.0625 C32.61121094 27.05347656 31.78492187 27.04445312 30.93359375 27.03515625 C29.97646484 27.01775391 29.97646484 27.01775391 29 27 C27.09275253 22.66534667 25.50808924 18.52426773 24 14 C22.68 18.29 21.36 22.58 20 27 C16.7 27 13.4 27 10 27 C6.12774801 18.15149227 2.94884341 9.18533351 0 0 Z " fill="#010101" transform="translate(63,228)"/>
<path d="M0 0 C4.02903134 2.25089491 6.5349847 4.60495409 8 9 C8.125 12.625 8.125 12.625 8 16 C5.94077598 18.05922402 1.78291876 17.41427579 -1.0625 17.5625 C-2.20041992 17.62727539 -2.20041992 17.62727539 -3.36132812 17.69335938 C-5.24065438 17.79973633 -7.12030244 17.90039934 -9 18 C-7.8448749 19.38177162 -7.8448749 19.38177162 -4.6875 19.125 C-1.19620522 19.16641139 -1.19620522 19.16641139 1.25 18.3125 C3 18 3 18 4.8125 19.1875 C6 21 6 21 6.125 23 C4.63724525 25.64489734 2.74813954 26.42812982 -0.04296875 27.45703125 C-5.75637441 29.04218771 -10.21321253 28.05818065 -15.265625 25.2578125 C-18.07997715 23.21677333 -18.98702621 21.29216481 -20 18 C-20.75121872 12.63415197 -20.11211598 8.56443678 -17 4 C-12.04313397 -0.70902273 -6.52693246 -1.27516047 0 0 Z M-8 7 C-8.66 8.32 -9.32 9.64 -10 11 C-7.03 11 -4.06 11 -1 11 C-1.66 9.68 -2.32 8.36 -3 7 C-4.65 7 -6.3 7 -8 7 Z " fill="#010101" transform="translate(128,228)"/>
<path d="M0 0 C-0.75 4.75 -0.75 4.75 -3 7 C-6.0625 7.1875 -6.0625 7.1875 -9 7 C-10 6 -10 6 -10.0625 3.4375 C-10.041875 2.633125 -10.02125 1.82875 -10 1 C-6.78548731 -0.60725635 -3.56387464 -0.05748185 0 0 Z " fill="#010101" transform="translate(370,243)"/>
<path d="M0 0 C2.05078125 0.03255208 4.1015625 0.06510417 6.15234375 0.09765625 C6.33984375 2.47265625 6.33984375 2.47265625 6.15234375 5.09765625 C2.92860698 7.2468141 1.88530701 7.48052428 -1.84765625 7.09765625 C-2.50765625 6.43765625 -3.16765625 5.77765625 -3.84765625 5.09765625 C-3.1001104 0.16385362 -3.1001104 0.16385362 0 0 Z " fill="#010101" transform="translate(264.84765625,242.90234375)"/>
</svg>
